<svg xmlns:dc="http://purl.org/dc/elements/1.1/" xmlns:cc="http://creativecommons.org/ns#" xmlns:rdf="http://www.w3.org/1999/02/22-rdf-syntax-ns#" xmlns:svg="http://www.w3.org/2000/svg" xmlns="http://www.w3.org/2000/svg" xmlns:xlink="http://www.w3.org/1999/xlink" id="svg545589" viewBox="0 0 342 40" version="1.1">
  <g id="logo-group">
    <g id="logo-center">
      <image xlink:href="" id="icon_container" style="display: none;" x="0" y="0"></image>
      <g id="slogan" style="font-style:oblique;font-weight:300;font-size:32px;line-height:1;font-family:'Fira Sans Condensed';font-variant-ligatures:none;text-align:center;text-anchor:middle" transform="translate(0 0)"></g>
      <g id="title" style="font-style:normal;font-weight:normal;font-size:72px;line-height:1;font-family:'Brandmark Sans 14 Color';font-variant-ligatures:normal;text-align:center;text-anchor:middle" transform="translate(0 0)">
        <g id="path717459" aria-label="G" transform="translate(0 313.741) translate(226.86078125000012 37.184000000000005) scale(1.25) translate(-335.35025 51.264)"> <path class="c1" d="M125.64375,94.07364c0,25.77966-17.07568,29.573-25.15332,29.573 c-16.32666,0-25.86963-11.8407-25.86963-26.44714c0-14.60718,9.54297-26.44788,25.86963-26.44788 c10.27393,0,18.49072,5.43286,22.72803,13.47302l-12.28418,5.19592c-2.06494-4.45349-5.92822-7.4375-10.73242-7.4375 c-7.81055,0-12.37573,6.8125-12.37573,15.21643c0,8.40308,4.56519,15.21558,12.37573,15.21558 c9.69556,0,10.9248-7.0271,10.9248-8.63428H100.2126v-9.70422h11.56274v-0.00293H125.64375z" transform="translate(260.72945 -122.01562)" stroke-width="0" stroke-linejoin="miter" stroke-miterlimit="2" fill="#191919" stroke="#191919"></path> </g>
        <g id="path717461" aria-label="R" transform="translate(0 313.741) translate(316.5096812500001 38.803999999999995) scale(1.25) translate(-392.06937 49.968)"> <path class="c1" d="M121.81953,121.9545h-15.25l-11.05078-17.96851h-1.29248v17.96851H81.74873V72.04483h19.80762 c5.28662,0,15.73242,2.17822,15.73242,15.97095c0,9.30176-4.75146,13.31763-9.46729,14.94849L121.81953,121.9545z M104.69942,88.01578c0-4.56226-2.99414-5.90808-6.00537-5.90808h-4.46777v11.81616h4.46777 C101.70528,93.92386,104.69942,92.57816,104.69942,88.01578z" transform="translate(310.32064 -122.01283)" stroke-width="0" stroke-linejoin="miter" stroke-miterlimit="2" fill="#191919" stroke="#191919"></path> </g>
        <g id="path717463" aria-label="E" transform="translate(0 313.741) translate(390.8065562500001 38.803999999999995) scale(1.25) translate(-436.50687 49.968)"> <path class="c1" d="M98.83369,110.86331h15.3374v11.09119H86.3564V72.04483h12.47729v0.09363h15.3374v11.09106h-15.3374 V110.86331z" transform="translate(350.15047 -122.01283)" stroke-width="0" stroke-linejoin="miter" stroke-miterlimit="2" fill="#191919" stroke="#191919"></path> <path class="c3" d="M101.65059,97.04178c0-3.72205,2.92358-6.73914,6.53027-6.73914c3.60596,0,6.52954,3.01709,6.52954,6.73914 s-2.92358,6.73901-6.52954,6.73901C104.57417,103.78079,101.65059,100.76382,101.65059,97.04178z" transform="translate(350.15047 -122.01283)" stroke-width="0" stroke-linejoin="miter" stroke-miterlimit="2" fill="#a600b7" stroke="#a600b7"></path> </g>
        <g id="path717465" aria-label="G" transform="translate(0 313.741) translate(450.9818812500001 37.184000000000005) scale(1.25) translate(-469.64713 51.264)"> <path class="c1" d="M125.64375,94.07364c0,25.77966-17.07568,29.573-25.15332,29.573 c-16.32666,0-25.86963-11.8407-25.86963-26.44714c0-14.60718,9.54297-26.44788,25.86963-26.44788 c10.27393,0,18.49072,5.43286,22.72803,13.47302l-12.28418,5.19592c-2.06494-4.45349-5.92822-7.4375-10.73242-7.4375 c-7.81055,0-12.37573,6.8125-12.37573,15.21643c0,8.40308,4.56519,15.21558,12.37573,15.21558 c9.69556,0,10.9248-7.0271,10.9248-8.63428H100.2126v-9.70422h11.56274v-0.00293H125.64375z" transform="translate(395.02633 -122.01562)" stroke-width="0" stroke-linejoin="miter" stroke-miterlimit="2" fill="#191919" stroke="#191919"></path> </g>
        <g id="path717467" aria-label="R" transform="translate(0 313.741) translate(540.6307812500002 38.803999999999995) scale(1.25) translate(-526.36625 49.968)"> <path class="c1" d="M121.81953,121.9545h-15.25l-11.05078-17.96851h-1.29248v17.96851H81.74873V72.04483h19.80762 c5.28662,0,15.73242,2.17822,15.73242,15.97095c0,9.30176-4.75146,13.31763-9.46729,14.94849L121.81953,121.9545z M104.69942,88.01578c0-4.56226-2.99414-5.90808-6.00537-5.90808h-4.46777v11.81616h4.46777 C101.70528,93.92386,104.69942,92.57816,104.69942,88.01578z" transform="translate(444.61752 -122.01283)" stroke-width="0" stroke-linejoin="miter" stroke-miterlimit="2" fill="#191919" stroke="#191919"></path> </g>
        <g id="path717469" aria-label="I" transform="translate(0 313.741) translate(614.92765625 38.803999999999995) scale(1.25) translate(-570.80375 49.968)"> <path class="c1" d="M93.73653,121.9545V72.04483h12.47754v49.90967H93.73653z" transform="translate(477.06722 -122.01283)" stroke-width="0" stroke-linejoin="miter" stroke-miterlimit="2" fill="#191919" stroke="#191919"></path> </g>
        <g id="path717471" aria-label="C" transform="translate(0 313.741) translate(656.64593125 37.184000000000005) scale(1.25) translate(-589.17837 51.264)"> <path class="c1" d="M124.7419,109.90213c-4.22314,8.18994-12.54492,13.74451-22.84741,13.74451 c-16.32666,0-25.86963-11.8407-25.86963-26.44714c0-14.60718,9.54297-26.44788,25.86963-26.44788 c10.27368,0,18.49048,5.43286,22.72729,13.47229l-12.28418,5.19604c-2.06519-4.45361-5.92847-7.43762-10.73267-7.43762 c-7.81055,0-12.37573,6.8125-12.37573,15.21643c0,8.40308,4.56519,15.21558,12.37573,15.21558 c4.79419,0,8.68896-3.02283,10.75854-7.52393L124.7419,109.90213z" transform="translate(513.15351 -122.01562)" stroke-width="0" stroke-linejoin="miter" stroke-miterlimit="2" fill="#191919" stroke="#191919"></path> </g>
        <g id="path717473" aria-label="H" transform="translate(0 313.741) translate(742.7792187499999 38.803999999999995) scale(1.25) translate(-643.085 49.968)"> <path class="c1" d="M121.717,72.04483v49.90967H109.2397v-20.71619H90.73409v20.71619H78.25703V72.04483h12.47705v19.48914 h18.50562V72.04483H121.717z" transform="translate(564.82797 -122.01283)" stroke-width="0" stroke-linejoin="miter" stroke-miterlimit="2" fill="#191919" stroke="#191919"></path> </g>
              </g>
      <image xlink:href="" id="icon" style="display: none;" x="0" y="0"></image>
    </g>
  </g>
</svg>